{"extensionsUsed" : ["KHR_materials_specular"], "accessors" : [{"bufferView" : 0, "byteOffset" : 0, "componentType" : 5123, "count" : 819, "type" : "SCALAR", "max" : [328], "min" : [0]}, {"bufferView" : 1, "byteOffset" : 0, "componentType" : 5126, "count" : 329, "type" : "VEC3", "max" : [97.60466003417969, 8.995989799499512, 0.009999999776482582], "min" : [-22.56871223449707, -51.11491775512695, -0.5099999904632568], "name" : "POSITION"}, {"bufferView" : 1, "byteOffset" : 12, "componentType" : 5126, "count" : 329, "type" : "VEC3", "max" : [0.9988662004470825, 1.0000044107437134, 1.0000044107437134], "min" : [-1.0000044107437134, -0.998931884765625, -1.0000044107437134], "name" : "NORMAL"}, {"bufferView" : 1, "byteOffset" : 24, "componentType" : 5126, "count" : 329, "type" : "VEC2", "max" : [0.9889013767242432, 2], "min" : [0, 1.0015411376953125], "name" : "TEXCOORD_0"}], "asset" : {"generator" : "Aspose.3D 24.4.1", "version" : "2.0"}, "buffers" : [{"uri" : "data:application/octet-stream;base64,", "byteLength" : 12176}], "bufferViews" : [{"buffer" : 0, "byteOffset" : 0, "byteLength" : 1640, "target" : 34963}, {"buffer" : 0, "byteOffset" : 1644, "byteLength" : 10528, "byteStride" : 32, "target" : 34962}], "materials" : [{"name" : "diffuse_Red", "extensions" : {"KHR_materials_specular" : {"specularColorFactor" : [2, 2, 2]}}, "pbrMetallicRoughness" : {"baseColorFactor" : [1, 0, 0, 1], "metallicFactor" : 0, "roughnessFactor" : 1}, "emissiveFactor" : [0, 0, 0], "alphaMode" : "OPAQUE", "doubleSided" : true}], "meshes" : [{"primitives" : [{"attributes" : {"POSITION" : 1, "NORMAL" : 2, "TEXCOORD_0" : 3}, "indices" : 0, "material" : 0, "mode" : 4}]}], "nodes" : [{"matrix" : [1, 0, 0, 0, 0, -1.3435885648505064E-07, 1.0000001343588565, 0, 0, -1.0000001343588565, -1.3435885648505064E-07, 0, 0, 0, 0, 1], "mesh" : 0, "name" : "sec-m"}], "scene" : 0, "scenes" : [{"nodes" : [0]}]}