{"extensionsUsed" : ["KHR_materials_specular"], "accessors" : [{"bufferView" : 0, "byteOffset" : 0, "componentType" : 5123, "count" : 2673, "type" : "SCALAR", "max" : [1979], "min" : [0]}, {"bufferView" : 1, "byteOffset" : 0, "componentType" : 5126, "count" : 1980, "type" : "VEC3", "max" : [49.35234832763672, 56.49608612060547, 86.96619415283203], "min" : [-32.35767364501953, -70.11389923095703, -130.54380798339844], "name" : "POSITION"}, {"bufferView" : 1, "byteOffset" : 12, "componentType" : 5126, "count" : 1980, "type" : "VEC3", "max" : [0.9999723434448242, 1.0000044107437134, 1.0000044107437134], "min" : [-1.0000044107437134, -1.0000044107437134, -0.9999746084213257], "name" : "NORMAL"}], "asset" : {"generator" : "Aspose.3D 24.4.1", "version" : "2.0"}, "buffers" : [{"uri" : "data:application/octet-stream;base64,", "byteLength" : 52876}], "bufferViews" : [{"buffer" : 0, "byteOffset" : 0, "byteLength" : 5348, "target" : 34963}, {"buffer" : 0, "byteOffset" : 5352, "byteLength" : 47520, "byteStride" : 24, "target" : 34962}], "materials" : [{"name" : "diffuse_0", "extensions" : {"KHR_materials_specular" : {"specularColorFactor" : [2, 2, 2]}}, "pbrMetallicRoughness" : {"baseColorFactor" : [0.7490000128746033, 1, 0, 1], "metallicFactor" : 0, "roughnessFactor" : 1}, "emissiveFactor" : [0, 0, 0], "alphaMode" : "OPAQUE", "doubleSided" : true}], "meshes" : [{"primitives" : [{"attributes" : {"POSITION" : 1, "NORMAL" : 2}, "indices" : 0, "material" : 0, "mode" : 4}]}], "nodes" : [{"matrix" : [-1.1920932507791804E-07, 2.980232309823805E-07, 1.0000000596046235, 0, -1.000000059604666, -1.1920932507791804E-07, -5.960463766996327E-08, 0, 5.960463766996327E-08, -1.0000000596046235, 2.3841856489070778E-07, 0, 3.337569236755371, 85.71234893798828, -29.192310333251953, 1], "mesh" : 0, "name" : "suncor-energy-center.001"}], "scene" : 0, "scenes" : [{"nodes" : [0]}]}